<svg version="1.1" id="Layer_1" xmlns="http://www.w3.org/2000/svg" xmlns:xlink="http://www.w3.org/1999/xlink" x="0px" y="0px" viewBox="0 0 500 500" style="width: 151px;" xml:space="preserve" data-imageid="sailor-83" imageName="Sailor" class="illustrations_image">
<style type="text/css">
	.st0_sailor-83{fill:#231F20;}
	.st1_sailor-83{fill:#68E1FD;}
	.st2_sailor-83{fill:#FFFFFF;}
	.st3_sailor-83{fill:#D1D3D4;}
</style>
<g id="Character_sailor-83">
	<rect x="187.3" y="373.6" class="st0_sailor-83" width="137.7" height="53.6"/>
	<path class="st0_sailor-83" d="M325,428H187.3c-0.4,0-0.7-0.3-0.7-0.7l0,0v-53.7c0-0.4,0.3-0.7,0.7-0.7c0,0,0,0,0,0H325&#10;&#9;&#9;c0.4,0,0.7,0.3,0.7,0.7c0,0,0,0,0,0v53.6C325.7,427.7,325.4,428,325,428C325,428,325,428,325,428z M188,426.6h136.3v-52.3H188&#10;&#9;&#9;V426.6z"/>
	<path class="st1_sailor-83 targetColor" d="M387.3,285.3c-0.6,1.6-11.5,57.6-28,62s-49.2-44.7-49.2-44.7l22.4-100.7L387.3,285.3z" style="fill: rgb(104, 225, 253);"/>
	<path class="st1_sailor-83 targetColor" d="M127.6,277.2c0.6,1.5,12.6,57.5,29.1,61.9s28.1-29.7,28.1-29.7l-16.5-97L127.6,277.2z" style="fill: rgb(104, 225, 253);"/>
	<path class="st1_sailor-83 targetColor" d="M231.9,168.4c0,0-31.2,3.2-29,9.7s14.4,12.6,14.4,12.6s-45.2,15.5-49.6,21.2s11.9,170.6,11.9,170.6H318&#10;&#9;&#9;c0,0,17.3-178.5,14.1-181.1s-48.6-14.5-48.6-14.5s8.2-13,4.9-15.9S231.9,168.4,231.9,168.4z" style="fill: rgb(104, 225, 253);"/>
	<path class="st0_sailor-83" d="M252.2,360.4h-0.1c-0.4-0.1-0.7-0.4-0.6-0.8c0,0,0,0,0,0l21.3-140.1l-42.2-27c-0.3-0.2-0.4-0.7-0.2-1&#10;&#9;&#9;c0.2-0.3,0.7-0.4,1-0.2c0,0,0,0,0,0l42.6,27.2c0.2,0.2,0.4,0.4,0.3,0.7L253,359.8C252.9,360.2,252.6,360.5,252.2,360.4z"/>
	<path class="st0_sailor-83" d="M325.7,288.5L325.7,288.5c-0.4,0-0.7-0.4-0.7-0.8c0-0.6,3-57.4,4.5-69.4c0-0.4,0.4-0.7,0.8-0.6&#10;&#9;&#9;c0.4,0,0.7,0.4,0.6,0.8c-1.5,11.9-4.5,68.7-4.5,69.2C326.4,288.2,326.1,288.5,325.7,288.5z"/>
	<path class="st2_sailor-83" d="M298.5,107c0,14.9-22.3,19.7-49.9,19.7s-49.9-4.8-49.9-19.7s22.3-34.3,49.9-34.3S298.5,92.1,298.5,107z"/>
	<path class="st0_sailor-83" d="M248.6,127.5c-33.6,0-50.6-6.9-50.6-20.5c0-15.8,23.4-35,50.6-35c12.9,0,25.4,4.1,35.7,11.7&#10;&#9;&#9;c9.3,6.9,14.9,15.7,14.9,23.3C299.2,120.6,282.2,127.5,248.6,127.5z M248.6,73.5c-28.5,0-49.2,20.1-49.2,33.6&#10;&#9;&#9;c0,15.7,26.8,19,49.2,19s49.2-3.3,49.2-19C297.8,93.5,277.2,73.4,248.6,73.5L248.6,73.5z"/>
	<path class="st2_sailor-83" d="M269.5,140.1c1.5-10.5,18.8-13.4,18.1-1.1c-0.2,4.2-1.5,8.6-4.4,11.6s-7.7,4.6-11.6,2.9"/>
	<path class="st0_sailor-83" d="M275.1,155c-1.3,0-2.5-0.2-3.7-0.7c-0.4-0.2-0.5-0.6-0.4-0.9c0,0,0,0,0,0c0.2-0.4,0.6-0.5,1-0.4&#10;&#9;&#9;c3.4,1.5,7.9,0.3,10.8-2.8c3.2-3.4,4-7.9,4.2-11.2c0.3-6.1-3.8-7.1-5.6-7.3c-4.6-0.4-10.3,2.9-11.1,8.5c-0.1,0.4-0.4,0.7-0.8,0.6&#10;&#9;&#9;c-0.4-0.1-0.7-0.4-0.6-0.8c0.9-6.4,7.4-10.2,12.7-9.7c3.5,0.3,7.2,2.8,6.9,8.8c-0.2,3.5-1.1,8.4-4.6,12.1&#10;&#9;&#9;C281.5,153.6,278.4,154.9,275.1,155z"/>
	<path class="st2_sailor-83" d="M228.5,139.8c-1.9-10.4-19.3-12.7-18.2-0.4c0.4,4.2,1.8,8.5,4.8,11.5s7.8,4.3,11.7,2.5"/>
	<path class="st0_sailor-83" d="M223,154.9c-3.2,0-6.2-1.3-8.4-3.5c-3.6-3.6-4.7-8.4-5-11.9c-0.5-6,3.1-8.6,6.6-9.1c5.2-0.7,11.9,2.9,13,9.2&#10;&#9;&#9;c0.1,0.4-0.2,0.8-0.6,0.8s-0.8-0.2-0.8-0.6l0,0c-1-5.5-6.8-8.7-11.4-8.1c-1.8,0.2-5.9,1.4-5.3,7.5c0.3,3.2,1.3,7.8,4.6,11&#10;&#9;&#9;c3,3,7.5,3.9,10.9,2.4c0.4-0.2,0.8,0,1,0.3c0.2,0.4,0,0.8-0.3,1C225.8,154.6,224.4,154.9,223,154.9z"/>
	<path class="st2_sailor-83" d="M231,192c0,0,15.3,6.3,19.1,6.3c10,0,18.5-7,18.5-7l-0.7-7.3l-1.7-17l-1.6-15.8l-33.6-1.5l1.6,15.1l-0.2,4.2&#10;&#9;&#9;L231,192z"/>
	<path class="st0_sailor-83" d="M250.1,198.9c-4,0-18.8-6.1-19.4-6.3c-0.3-0.1-0.5-0.4-0.4-0.7l1.6-27.2l-1.6-14.9c0-0.2,0-0.4,0.2-0.6&#10;&#9;&#9;c0.2-0.1,0.4-0.2,0.6-0.2l33.7,1.5c0.4,0,0.7,0.3,0.7,0.6l3.9,40.1c0,0.2-0.1,0.5-0.3,0.6C268.7,192.1,260.3,198.9,250.1,198.9z&#10;&#9;&#9; M231.7,191.5c5.4,2.2,15.5,6,18.4,6c8.6,0,16.1-5.4,17.7-6.6l-3.8-39l-32.2-1.4l1.5,14.2l-0.2,4.3L231.7,191.5z"/>
	<path class="st0_sailor-83" d="M232.4,169c2.4,3.8,6.4,6.7,10.4,8.8c6.8,3.6,16.9,7.6,25.1,6.2l-1.7-17c-6,0.9-12,1-18,0.5&#10;&#9;&#9;c-5.3-0.4-10.7-0.8-15.6-2.7L232.4,169z"/>
	<path class="st0_sailor-83" d="M264.3,184.9c-8.1,0-16.9-4-21.9-6.6s-8.5-5.6-10.7-9c-0.1-0.1-0.1-0.3-0.1-0.4l0.2-4.2c0-0.2,0.1-0.4,0.3-0.6&#10;&#9;&#9;c0.2-0.1,0.4-0.1,0.6-0.1c4.9,2,10.5,2.3,15.4,2.7c5.9,0.6,11.9,0.4,17.8-0.4c0.4-0.1,0.7,0.2,0.8,0.6c0,0,0,0,0,0l1.6,17&#10;&#9;&#9;c0,0.4-0.2,0.7-0.6,0.8C266.8,184.9,265.5,185,264.3,184.9z M233.1,168.8c2.1,3.1,5.4,5.9,10,8.4c5.4,2.9,15.5,7.4,24,6.2&#10;&#9;&#9;l-1.5-15.6c-5.8,0.8-11.6,0.9-17.4,0.4c-4.7-0.3-10-0.7-14.9-2.4L233.1,168.8z"/>
	<path class="st2_sailor-83" d="M223.4,111.4l0.7,36.5c0.2,13.2,11.1,23.7,24.4,23.5c0,0,0,0,0,0l2.8-0.1c13.2-0.2,23.7-11.2,23.5-24.4&#10;&#9;&#9;c0,0,0,0,0,0l-0.7-35.5H223.4z"/>
	<path class="st0_sailor-83" d="M248,172.1c-13.4,0-24.4-10.8-24.6-24.2l-0.7-36.5c0-0.2,0.1-0.4,0.2-0.5c0.1-0.1,0.3-0.2,0.5-0.2h50.7&#10;&#9;&#9;c0.4,0,0.7,0.3,0.7,0.7l0.7,35.5c0.2,13.6-10.6,24.8-24.2,25.1l-2.8,0.1H248z M224.1,112.1l0.7,35.8c0.3,12.8,10.8,23,23.6,22.8&#10;&#9;&#9;l2.8-0.1c12.8-0.3,23-10.8,22.8-23.6l-0.6-34.8H224.1z"/>
	
		<ellipse transform="matrix(0.9998 -1.867394e-02 1.867394e-02 0.9998 -2.4864 4.4347)" class="st0_sailor-83" cx="236.2" cy="135.4" rx="1.6" ry="4"/>
	
		<ellipse transform="matrix(0.9998 -1.999600e-02 1.999600e-02 0.9998 -2.6479 5.2471)" class="st0_sailor-83" cx="261.1" cy="135" rx="1.7" ry="4"/>
	<path class="st3_sailor-83" d="M271.9,111.4c0.4,5.8,1.1,21.1-0.2,30.7c-1.9,13.5-4.9,14.9-4.9,14.9s-2.1-5.8-17.1-5.9&#10;&#9;&#9;c-17.4-0.1-21.1,5.9-21.1,5.9c-4.3-9.3-3.4-37.3-3-45.7h-6.2c-0.2,9.5-1.8,41,1.2,51c3.5,11.6,9.8,18.3,31.9,18.5&#10;&#9;&#9;c15.7,0.1,20.7-7.8,23.5-22.9c2.8-15.4,3.4-31.1,1.9-46.6L271.9,111.4z"/>
	<path class="st0_sailor-83" d="M252.7,181.6h-0.3c-22.4-0.1-28.9-7.1-32.5-19c-2.7-8.9-1.8-34.5-1.4-46.8c0.1-1.8,0.1-3.3,0.1-4.4&#10;&#9;&#9;c0-0.4,0.3-0.7,0.7-0.7h6.1c0.2,0,0.4,0.1,0.5,0.2c0.1,0.1,0.2,0.3,0.2,0.5c-0.4,8-1.2,34.3,2.6,44.4c1.8-1.8,7.2-5.3,20.7-5.3h0.2&#10;&#9;&#9;c12,0,16.1,3.7,17.3,5.5c0.9-1.1,2.8-4.4,4-13.9s0.5-24.6,0.2-30.6c0-0.2,0.1-0.4,0.2-0.5c0.1-0.1,0.3-0.2,0.5-0.2h5.9&#10;&#9;&#9;c0.4,0,0.7,0.3,0.7,0.6c1.5,15.6,0.9,31.4-1.9,46.8C273.8,172.9,269,181.6,252.7,181.6z M220,112.1c0,1.1-0.1,2.3-0.1,3.8&#10;&#9;&#9;c-0.4,12.2-1.3,37.7,1.4,46.3c4.5,15,14.5,17.9,31.2,18h0.3c15.4,0,19.8-7.9,22.5-22.3c2.7-15.1,3.4-30.5,2-45.8h-4.6&#10;&#9;&#9;c0.4,6.5,1,20.9-0.2,30.1c-1.9,13.5-5,15.3-5.3,15.4c-0.2,0.1-0.4,0.1-0.6,0c-0.2-0.1-0.3-0.2-0.4-0.4c0,0-2.3-5.4-16.5-5.4h-0.2&#10;&#9;&#9;c-16.5,0-20.3,5.5-20.4,5.6c-0.2,0.3-0.6,0.4-1,0.2c-0.1-0.1-0.2-0.2-0.3-0.3c-4.3-9.2-3.5-36.1-3.1-45.3L220,112.1z"/>
	<path class="st2_sailor-83" d="M249.8,136.9c0,0,5.5,17.3,2,17.8s-7.9-5.1-7.9-5.1"/>
	<path class="st0_sailor-83" d="M251.4,155.5c-3.7,0-7.8-5.2-8-5.4c-0.2-0.3-0.2-0.8,0.1-1c0.3-0.2,0.8-0.2,1,0.1c1.2,1.5,4.7,5.2,7.2,4.8&#10;&#9;&#9;c0,0,0.1,0,0.2-0.2c1.2-1.9-1.1-11.3-2.8-16.7c-0.1-0.4,0.1-0.8,0.5-0.9s0.8,0.1,0.9,0.5c0.8,2.5,4.6,14.9,2.7,17.9&#10;&#9;&#9;c-0.3,0.4-0.7,0.8-1.2,0.8C251.7,155.5,251.6,155.5,251.4,155.5z"/>
	<path class="st0_sailor-83" d="M249.5,167.4c-4.9-0.1-9.6-1.3-13.9-3.5c-0.4-0.2-0.5-0.6-0.3-1c0,0,0,0,0,0c0.2-0.3,0.6-0.5,1-0.3&#10;&#9;&#9;c0,0,0,0,0,0c0.1,0.1,13.3,7.4,24.6,0c0.3-0.2,0.8-0.1,1,0.2c0.2,0.3,0.1,0.8-0.2,1l0,0C258.1,166.2,253.9,167.4,249.5,167.4z"/>
	<path class="st1_sailor-83 targetColor" d="M213.3,99.2c0,0,9.9-5.4,36.8-5.4s33.9,5.4,33.9,5.4l-5.4,19.2h-59.9L213.3,99.2z" style="fill: rgb(104, 225, 253);"/>
	<path class="st0_sailor-83" d="M278.6,119.1h-59.9c-0.3,0-0.6-0.2-0.7-0.5l-5.4-19.2c-0.1-0.3,0.1-0.6,0.3-0.8c0.4-0.2,10.4-5.5,37.1-5.5&#10;&#9;&#9;s34,5.3,34.3,5.6c0.2,0.2,0.3,0.5,0.2,0.7l-5.4,19.2C279.2,118.9,278.9,119.1,278.6,119.1z M219.2,117.7H278l5.1-18.2&#10;&#9;&#9;c-1.8-1-10.1-5-33-5c-23.1,0-33.7,4.1-36,5.1L219.2,117.7z"/>
	<path class="st0_sailor-83" d="M218.7,118.4c0,0,14.8,11.1,31.4,10.3c10.3-0.6,20.1-4.2,28.5-10.3H218.7z"/>
	<path class="st0_sailor-83" d="M248.4,129.4c-16,0-30-10.3-30.1-10.4c-0.3-0.2-0.4-0.7-0.1-1c0.1-0.2,0.3-0.3,0.6-0.3h59.9&#10;&#9;&#9;c0.3,0,0.6,0.2,0.6,0.5c0.1,0.3,0,0.6-0.2,0.8c-8.4,6.1-18.4,9.8-28.9,10.4C249.6,129.4,249,129.4,248.4,129.4z M221,119.1&#10;&#9;&#9;c4.4,2.8,16.3,9.5,29.1,8.9c9.4-0.6,18.5-3.7,26.3-8.9H221z"/>
	<path class="st2_sailor-83" d="M256,106.1c-2.8-1.4-4.3-4.5-3.7-7.5h-8.4c0.6,3-1,6.1-3.7,7.5c0,0,1,9,7.9,9S256,106.1,256,106.1z"/>
	<path class="st3_sailor-83" d="M249.1,91.5c-0.4,0-0.7-0.3-0.7-0.7V76.5c0-0.4,0.3-0.7,0.7-0.7c0.4,0,0.7,0.3,0.7,0.7v14.3&#10;&#9;&#9;C249.8,91.2,249.5,91.5,249.1,91.5z"/>
	<path class="st3_sailor-83" d="M284,115.8c-0.3,0-0.6-0.2-0.7-0.5c-0.1-0.4,0.1-0.8,0.5-0.9c3.5-1.2,6.8-3.1,9.5-5.6c0.3-0.3,0.7-0.3,1,0&#10;&#9;&#9;c0,0,0,0,0,0c0.3,0.3,0.3,0.7,0,1c0,0,0,0,0,0c-2.9,2.7-6.3,4.8-10.1,6C284.2,115.8,284.1,115.8,284,115.8z"/>
	<path class="st3_sailor-83" d="M213.1,115.8h-0.2c-3.8-1.2-7.2-3.3-10.1-6c-0.3-0.3-0.3-0.7,0-1s0.7-0.3,1,0c2.7,2.5,6,4.5,9.5,5.6&#10;&#9;&#9;c0.4,0.1,0.6,0.5,0.5,0.8C213.8,115.6,213.5,115.9,213.1,115.8L213.1,115.8z"/>
	<path class="st0_sailor-83" d="M231,192l20.7,13.2l16.9-13.9C268.6,191.3,248.7,201.2,231,192z"/>
	<path class="st0_sailor-83" d="M251.7,205.9c-0.1,0-0.3,0-0.4-0.1l-20.7-13.2c-0.3-0.2-0.4-0.7-0.1-1c0.2-0.3,0.5-0.3,0.8-0.2&#10;&#9;&#9;c17.2,8.9,36.8-0.6,37-0.7c0.4-0.2,0.8,0,0.9,0.4c0.1,0.3,0.1,0.6-0.2,0.8l-16.9,13.9C252,205.8,251.8,205.9,251.7,205.9z&#10;&#9;&#9; M237.3,195.2l14.3,9.1l13.1-10.8C259,195.5,248.2,198.2,237.3,195.2z"/>
	<path class="st0_sailor-83" d="M184.8,353.7c-0.4,0-0.7-0.3-0.8-0.7c-3.9-49.8-4.9-123.6-4.9-124.4c0-0.4,0.3-0.7,0.7-0.7c0,0,0,0,0,0l0,0&#10;&#9;&#9;c0.4,0,0.7,0.3,0.7,0.7c0,0,0,0,0,0c0,0.7,1,74.5,4.9,124.3C185.5,353.3,185.2,353.6,184.8,353.7L184.8,353.7z"/>
	<path class="st2_sailor-83" d="M368.2,316c-3.5,0.8-7.1,0.4-10.3-1.2c-3.2-1.7-5.2-4.9-5.3-8.5c0-1,0.2-1.9,0.6-2.8c0.7-1.3,1.7-2.4,3-3.1&#10;&#9;&#9;c5.4-3.2,20-4.8,24,1.1C385.5,309.6,374.4,314.7,368.2,316z"/>
	<path class="st0_sailor-83" d="M364.5,317.1c-2.4,0-4.8-0.5-6.9-1.6c-3.4-1.8-5.6-5.3-5.7-9.1c0-1.1,0.2-2.1,0.7-3.1c0.7-1.4,1.9-2.6,3.3-3.4&#10;&#9;&#9;c5.8-3.5,20.7-5,24.9,1.4c1.6,2.4,2,4.8,1,7c-2,5-9.5,7.7-13.5,8.6l0,0C367,317,365.7,317.2,364.5,317.1z M368.2,316L368.2,316z&#10;&#9;&#9; M369.2,298.3c-4.8,0-9.9,1.2-12.5,2.8c-1.2,0.7-2.1,1.6-2.8,2.8c-0.4,0.8-0.6,1.6-0.6,2.5c0.1,3.3,2,6.3,5,7.9&#10;&#9;&#9;c3,1.5,6.5,1.9,9.8,1.1l0,0c4.9-1,10.9-3.9,12.5-7.7c0.7-1.9,0.4-4.1-0.9-5.6C377.8,299.3,373.6,298.3,369.2,298.3L369.2,298.3z"/>
	<path class="st0_sailor-83" d="M274.8,194.8c-0.3,0-0.5-0.2-0.6-0.4c-0.2-0.3-0.1-0.8,0.3-1c0,0,0.1,0,0.1,0c0.1,0,9-4.2,13.7-17.9&#10;&#9;&#9;c0.1-0.4,0.5-0.6,0.9-0.5c0,0,0,0,0,0c0.4,0.1,0.6,0.5,0.5,0.9c-4.9,14.3-14.1,18.5-14.5,18.7C275,194.7,274.9,194.7,274.8,194.8z"/>
	<circle class="st0_sailor-83" cx="258" cy="257.4" r="2.9"/>
	<circle class="st0_sailor-83" cx="256.2" cy="281.3" r="2.9"/>
</g>
<g id="Steer_sailor-83">
	<path class="st2_sailor-83" d="M226.7,242.9c0,8.2,2,21.7,5.8,36.6c2.3,9.7,5.4,19.2,9.1,28.4l10.7-2.7c-1.1-9.9-2.9-19.7-5.4-29.4&#10;&#9;&#9;c-3.7-14.9-8.3-27.7-12.2-35L226.7,242.9z"/>
	<path class="st0_sailor-83" d="M241.6,308.7c-0.3,0-0.6-0.2-0.7-0.5c-3.7-9.3-6.8-18.8-9.1-28.5c-3.6-14.4-5.8-28.2-5.8-36.8&#10;&#9;&#9;c0-0.3,0.2-0.6,0.6-0.7l8-2c0.3-0.1,0.7,0.1,0.8,0.4c4,7.6,8.6,20.7,12.2,35.1c2.5,9.7,4.3,19.5,5.4,29.5c0,0.4-0.2,0.7-0.6,0.8&#10;&#9;&#9;l-10.7,2.7L241.6,308.7z M227.4,243.5c0.1,8.5,2.2,21.8,5.8,35.9c2.3,9.4,5.2,18.7,8.8,27.8l9.5-2.4c-1.1-9.7-2.9-19.2-5.3-28.6&#10;&#9;&#9;c-3.5-14-7.9-26.8-11.8-34.3L227.4,243.5z"/>
	<path class="st2_sailor-83" d="M229.8,221.2c-1.1-4.7-1.4-44.5-14.6-41.2s5.3,38.6,6.6,43.2L229.8,221.2z"/>
	<path class="st0_sailor-83" d="M221.7,223.9c-0.3,0-0.6-0.2-0.7-0.5c-0.2-0.8-1-2.7-2.1-5.1c-4.2-9.8-12-27.9-8.2-35.6&#10;&#9;&#9;c1.6-3.2,5.5-4.5,8.8-2.9c0.3,0.1,0.6,0.3,0.8,0.5c7,5,8.7,24.7,9.6,35.3c0.2,2.6,0.4,4.7,0.6,5.5c0.1,0.4-0.1,0.8-0.5,0.9l-8,2&#10;&#9;&#9;L221.7,223.9z M216.7,180.5c-0.4,0-0.9,0.1-1.3,0.2c-1.4,0.3-2.7,1.3-3.3,2.6c-3.5,7.1,4.4,25.6,8.2,34.4c0.9,2,1.6,3.6,1.9,4.6&#10;&#9;&#9;l6.7-1.7c-0.1-1.1-0.3-2.8-0.5-5c-0.8-9.6-2.5-29.6-9-34.2C218.7,180.8,217.7,180.5,216.7,180.5L216.7,180.5z"/>
	<path class="st2_sailor-83" d="M218.3,220.4l12.3-3.1c0.8-0.2,1.6,0.3,1.8,1.1l1,4c0.2,0.8-0.3,1.6-1.1,1.8l-12.3,3.1&#10;&#9;&#9;c-0.8,0.2-1.6-0.3-1.8-1.1l-1-4C217.1,221.4,217.5,220.6,218.3,220.4z"/>
	<path class="st0_sailor-83" d="M220.1,227.9c-1.3,0-2.4-0.9-2.7-2.1l-0.7-2.9c-0.2-0.7-0.1-1.5,0.3-2.1c0.4-0.6,1-1.1,1.7-1.3l11.1-2.8&#10;&#9;&#9;c1.5-0.4,3,0.5,3.4,2l0.7,2.9c0.4,1.5-0.5,3-2,3.4l-11.1,2.8C220.6,227.9,220.4,227.9,220.1,227.9z M230.6,218.1&#10;&#9;&#9;c-0.1,0-0.2,0-0.3,0l-11.1,2.8c-0.3,0.1-0.7,0.3-0.8,0.6c-0.2,0.3-0.2,0.7-0.1,1l0.7,2.9c0.2,0.7,0.9,1.2,1.6,1l11.1-2.8l0,0&#10;&#9;&#9;c0.3-0.1,0.7-0.3,0.8-0.6c0.2-0.3,0.2-0.7,0.1-1l-0.7-2.9C231.7,218.5,231.2,218.1,230.6,218.1L230.6,218.1z"/>
	<path class="st2_sailor-83" d="M265.6,398.3c-3.9-7.2-8.4-20.1-12.2-35c-2.5-9.6-4.3-19.4-5.4-29.3l10.7-2.7c3.7,9.3,6.7,18.8,9.1,28.4&#10;&#9;&#9;c3.7,14.9,5.8,28.4,5.8,36.6L265.6,398.3z"/>
	<path class="st0_sailor-83" d="M265.6,399.1c-0.3,0-0.5-0.2-0.6-0.4c-4-7.6-8.6-20.7-12.2-35.1c-2.5-9.7-4.3-19.5-5.4-29.5&#10;&#9;&#9;c0-0.4,0.2-0.7,0.5-0.8l10.7-2.7c0.3-0.1,0.7,0.1,0.8,0.4c3.7,9.3,6.8,18.8,9.1,28.5c3.6,14.4,5.8,28.2,5.8,36.8&#10;&#9;&#9;c0,0.3-0.2,0.6-0.5,0.7l-8,2L265.6,399.1z M248.9,334.5c1.1,9.7,2.9,19.2,5.3,28.6c3.5,14,7.9,26.8,11.8,34.3l6.9-1.7&#10;&#9;&#9;c-0.1-8.5-2.2-21.8-5.7-35.9c-2.3-9.4-5.3-18.7-8.8-27.8L248.9,334.5z"/>
	<path class="st2_sailor-83" d="M283.2,427.3c-2.2-5.4-4.3-9.8-4.6-11.2l-8,2c0.3,1.2,0.5,4.7,0.9,9.2L283.2,427.3z"/>
	<path class="st0_sailor-83" d="M283.2,428h-11.8c-0.4,0-0.7-0.3-0.7-0.6c-0.1-1.3-0.2-2.5-0.3-3.6c-0.2-2.6-0.4-4.7-0.6-5.5&#10;&#9;&#9;c-0.1-0.4,0.1-0.8,0.5-0.9l8-2c0.4-0.1,0.8,0.1,0.9,0.5c0.2,0.8,1,2.7,2.1,5.1c0.7,1.7,1.6,3.8,2.5,6c0.1,0.2,0.1,0.5-0.1,0.7&#10;&#9;&#9;C283.7,427.9,283.5,428,283.2,428z M272.1,426.6h10c-0.8-1.8-1.5-3.5-2.1-5c-0.9-2-1.6-3.6-1.9-4.7l-6.7,1.7c0.2,1.1,0.3,2.8,0.5,5&#10;&#9;&#9;C272,424.6,272,425.5,272.1,426.6z"/>
	<path class="st2_sailor-83" d="M267.1,415.3l12.3-3.1c0.8-0.2,1.6,0.3,1.8,1.1l1,4c0.2,0.8-0.3,1.6-1.1,1.8l-12.3,3.1&#10;&#9;&#9;c-0.8,0.2-1.6-0.3-1.8-1.1l-1-4C265.9,416.3,266.3,415.5,267.1,415.3z"/>
	<path class="st0_sailor-83" d="M269,422.8c-1.3,0-2.4-0.9-2.7-2.1l-0.7-2.9c-0.2-0.7-0.1-1.5,0.3-2.1c0.4-0.6,1-1.1,1.7-1.3l11.1-2.8&#10;&#9;&#9;c1.5-0.4,3,0.5,3.4,2l0.7,2.9c0.2,0.7,0.1,1.5-0.3,2.1c-0.4,0.6-1,1.1-1.7,1.3l-11.1,2.8C269.5,422.8,269.2,422.8,269,422.8z&#10;&#9;&#9; M279.4,413c-0.1,0-0.2,0-0.3,0l0,0l-11.1,2.8c-0.3,0.1-0.7,0.3-0.8,0.6c-0.2,0.3-0.2,0.7-0.1,1l0.7,2.9c0.2,0.7,0.9,1.2,1.6,1&#10;&#9;&#9;l11.1-2.8c0.4-0.1,0.7-0.3,0.8-0.6c0.2-0.3,0.2-0.7,0.1-1l-0.7-2.9C280.5,413.4,280,413,279.4,413z M278.9,412.3L278.9,412.3z"/>
	<path class="st2_sailor-83" d="M287.8,249.1c-5.8,5.8-13.9,16.8-21.8,30c-5.2,8.5-9.8,17.4-13.7,26.5l9.4,5.7c6.2-7.8,11.9-16,17-24.6&#10;&#9;&#9;c7.9-13.2,13.8-25.5,16.1-33.3L287.8,249.1z"/>
	<path class="st0_sailor-83" d="M261.7,312c-0.1,0-0.3,0-0.4-0.1l-9.4-5.7c-0.3-0.2-0.4-0.6-0.3-0.9c3.9-9.2,8.5-18.1,13.7-26.6&#10;&#9;&#9;c7.6-12.8,15.8-24,21.9-30.1c0.2-0.2,0.6-0.3,0.9-0.1l7.1,4.2c0.3,0.2,0.4,0.5,0.3,0.8c-2.5,8.2-8.6,20.7-16.2,33.5&#10;&#9;&#9;c-5.1,8.6-10.8,16.9-17,24.7C262.2,311.9,262,312,261.7,312z M253.2,305.3l8.4,5c6-7.6,11.6-15.6,16.5-24&#10;&#9;&#9;c7.4-12.4,13.3-24.5,15.9-32.6l-6.1-3.7c-5.9,6.1-13.9,17-21.3,29.4C261.5,287.7,257.1,296.4,253.2,305.3L253.2,305.3z"/>
	<path class="st2_sailor-83" d="M305.3,235.9c2.5-4.1,30.5-32.5,18.8-39.5s-23.6,31.1-25.9,35.2L305.3,235.9z"/>
	<path class="st0_sailor-83" d="M305.3,236.6c-0.1,0-0.3,0-0.4-0.1l-7.1-4.2c-0.3-0.2-0.5-0.6-0.3-1c0,0,0,0,0,0c0.4-0.7,1.2-2.6,2.1-5.1&#10;&#9;&#9;c3.9-9.9,11.2-28.2,19.4-31c3.4-1.1,7.1,0.7,8.2,4.1c0.1,0.3,0.2,0.6,0.2,0.9c1.4,8.5-11.3,23.6-18.2,31.7c-1.7,2-3,3.6-3.5,4.3&#10;&#9;&#9;C305.8,236.5,305.6,236.6,305.3,236.6z M299.1,231.4l6,3.6c0.6-0.9,1.8-2.2,3.2-3.9c6.2-7.4,19.2-22.7,17.9-30.5&#10;&#9;&#9;c-0.5-2.8-3.1-4.6-5.8-4.1c-0.2,0-0.5,0.1-0.7,0.2c-7.5,2.5-15,21.2-18.5,30.1C300.2,228.8,299.6,230.4,299.1,231.4z"/>
	<path class="st2_sailor-83" d="M297.8,227.3l10.9,6.5c0.7,0.4,0.9,1.3,0.5,2l-2.1,3.6c-0.4,0.7-1.3,0.9-2,0.5l-10.9-6.5&#10;&#9;&#9;c-0.7-0.4-0.9-1.3-0.5-2l2.1-3.6C296.2,227.1,297.1,226.9,297.8,227.3z"/>
	<path class="st0_sailor-83" d="M305.6,240.6c-0.5,0-1-0.1-1.4-0.4l-9.9-5.9c-0.6-0.4-1.1-1-1.3-1.7c-0.2-0.7-0.1-1.5,0.3-2.1l1.5-2.6&#10;&#9;&#9;c0.8-1.3,2.5-1.8,3.9-1l9.9,5.9c1.3,0.8,1.8,2.5,1,3.8c0,0,0,0,0,0l-1.5,2.6C307.5,240.1,306.6,240.6,305.6,240.6z M297.2,228&#10;&#9;&#9;c-0.5,0-0.9,0.2-1.2,0.7l-1.5,2.6c-0.2,0.3-0.2,0.7-0.1,1c0.1,0.4,0.3,0.7,0.6,0.8l9.9,5.9l0,0c0.6,0.4,1.5,0.2,1.9-0.5&#10;&#9;&#9;c0,0,0,0,0,0l1.5-2.6c0.4-0.6,0.2-1.5-0.5-1.9l-9.9-5.9C297.7,228,297.5,228,297.2,228z"/>
	<path class="st2_sailor-83" d="M205.4,386.5c2.4-7.9,8.2-20.1,16.1-33.3c5.1-8.6,10.8-16.8,17-24.6l9.4,5.7c-3.9,9.2-8.5,18-13.7,26.5&#10;&#9;&#9;c-7.9,13.2-16,24.1-21.8,30L205.4,386.5z"/>
	<path class="st0_sailor-83" d="M212.5,391.5c-0.1,0-0.3,0-0.4-0.1l-7.1-4.2c-0.3-0.2-0.4-0.5-0.3-0.8c2.5-8.2,8.6-20.7,16.2-33.5&#10;&#9;&#9;c5.1-8.6,10.8-16.9,17-24.7c0.2-0.3,0.6-0.3,0.9-0.2l9.4,5.7c0.3,0.2,0.4,0.6,0.3,0.9c-3.9,9.2-8.5,18.1-13.7,26.6&#10;&#9;&#9;c-7.6,12.8-15.8,24-21.9,30.1C212.8,391.4,212.7,391.5,212.5,391.5z M206.3,386.2l6.1,3.7c5.9-6.1,13.9-17,21.3-29.4&#10;&#9;&#9;c5-8.3,9.5-16.9,13.4-25.9l-8.4-5c-6.1,7.6-11.6,15.6-16.5,24C214.7,366,208.8,378.1,206.3,386.2z"/>
	<path class="st2_sailor-83" d="M193.9,427.3c4-8.4,7.1-17.2,8.1-19l-7.1-4.3c-1.5,2.4-11.9,13.3-17.7,23.3L193.9,427.3z"/>
	<path class="st0_sailor-83" d="M193.9,428h-16.7c-0.4,0-0.7-0.3-0.7-0.7c0-0.1,0-0.2,0.1-0.4c4.1-7,10.2-14.2,14.2-19c1.7-2,3-3.6,3.5-4.3&#10;&#9;&#9;c0.2-0.3,0.7-0.4,1-0.2l7.1,4.3c0.3,0.2,0.5,0.6,0.3,1c0,0,0,0,0,0c-0.4,0.7-1.2,2.6-2.2,5.1c-1.5,3.8-3.5,8.9-5.9,13.9&#10;&#9;&#9;C194.4,427.9,194.2,428,193.9,428z M178.5,426.6h15c2.3-4.9,4.3-9.8,5.7-13.4c0.8-2.1,1.5-3.7,1.9-4.6l-6-3.6&#10;&#9;&#9;c-0.6,0.9-1.8,2.2-3.2,3.9C188.1,413.3,182.5,420,178.5,426.6z"/>
	<path class="st2_sailor-83" d="M194.5,399.6l10.9,6.5c0.7,0.4,0.9,1.3,0.5,2l-2.1,3.6c-0.4,0.7-1.3,0.9-2,0.5l-10.9-6.5&#10;&#9;&#9;c-0.7-0.4-0.9-1.3-0.5-2l2.1-3.6C192.9,399.4,193.8,399.2,194.5,399.6z"/>
	<path class="st0_sailor-83" d="M202.3,412.9c-0.5,0-1-0.1-1.4-0.4l-9.9-5.9c-1.3-0.8-1.8-2.5-1-3.8c0,0,0,0,0,0l1.5-2.5&#10;&#9;&#9;c0.4-0.6,1-1.1,1.7-1.3c0.7-0.2,1.5-0.1,2.1,0.3l9.9,5.9l0,0c0.6,0.4,1.1,1,1.3,1.7c0.2,0.7,0.1,1.5-0.3,2.1l-1.5,2.6&#10;&#9;&#9;C204.2,412.4,203.3,412.9,202.3,412.9z M194,400.3c-0.1,0-0.2,0-0.3,0c-0.3,0.1-0.7,0.3-0.8,0.6l-1.5,2.5c-0.2,0.3-0.2,0.7-0.1,1&#10;&#9;&#9;c0.1,0.4,0.3,0.7,0.6,0.8l9.9,5.9c0.6,0.4,1.5,0.2,1.9-0.5l1.5-2.6c0.4-0.6,0.2-1.5-0.5-1.9l-9.9-5.9&#10;&#9;&#9;C194.5,400.3,194.2,400.3,194,400.3z"/>
	<path class="st2_sailor-83" d="M326.6,296.7c-8.2,0-21.7,2-36.6,5.8c-9.7,2.4-19.2,5.4-28.4,9.1l2.7,10.7c9.9-1.1,19.7-2.9,29.4-5.4&#10;&#9;&#9;c14.9-3.7,27.7-8.3,35-12.2L326.6,296.7z"/>
	<path class="st0_sailor-83" d="M264.2,322.9c-0.3,0-0.6-0.2-0.7-0.5l-2.7-10.7c-0.1-0.3,0.1-0.7,0.4-0.8c9.3-3.7,18.8-6.8,28.5-9.1&#10;&#9;&#9;c14.4-3.6,28.2-5.8,36.8-5.8l0,0c0.3,0,0.6,0.2,0.7,0.5l2,8c0.1,0.3-0.1,0.7-0.4,0.8c-7.6,4-20.7,8.6-35.1,12.2&#10;&#9;&#9;C284.1,320,274.2,321.8,264.2,322.9L264.2,322.9z M262.4,311.9l2.4,9.5c9.7-1.1,19.2-2.9,28.6-5.3c14-3.5,26.8-7.9,34.3-11.8&#10;&#9;&#9;l-1.7-6.9c-8.5,0.1-21.8,2.2-35.8,5.8C280.7,305.4,271.4,308.4,262.4,311.9L262.4,311.9z"/>
	<path class="st2_sailor-83" d="M348.3,299.7c4.7-1.1,44.5-1.4,41.2-14.6s-38.6,5.3-43.2,6.6L348.3,299.7z"/>
	<path class="st0_sailor-83" d="M348.3,300.5c-0.3,0-0.6-0.2-0.7-0.5l-2-8c-0.1-0.4,0.1-0.8,0.5-0.9c0.8-0.2,2.7-1,5.1-2.1&#10;&#9;&#9;c9.8-4.2,27.9-12,35.6-8.2c3.2,1.6,4.5,5.6,2.9,8.8c-0.1,0.3-0.3,0.5-0.5,0.8c-5,7-24.7,8.7-35.3,9.6c-2.6,0.2-4.7,0.4-5.5,0.6&#10;&#9;&#9;C348.4,300.5,348.4,300.5,348.3,300.5z M347.2,292.2l1.7,6.7c1.1-0.1,2.8-0.3,5-0.5c9.6-0.8,29.6-2.5,34.2-9&#10;&#9;&#9;c1.6-2.3,1.1-5.5-1.2-7.1c-0.2-0.1-0.4-0.3-0.6-0.4c-7.1-3.5-25.6,4.4-34.4,8.2C349.8,291.1,348.2,291.8,347.2,292.2z"/>
	<path class="st2_sailor-83" d="M349.1,288.3l3.1,12.3c0.2,0.8-0.3,1.6-1.1,1.8l-4,1c-0.8,0.2-1.6-0.3-1.8-1.1l-3.1-12.3&#10;&#9;&#9;c-0.2-0.8,0.3-1.6,1.1-1.8l4-1C348.1,287,348.9,287.5,349.1,288.3z"/>
	<path class="st0_sailor-83" d="M347.2,304.1c-1.3,0-2.4-0.9-2.7-2.1l0,0l-2.8-11.1c-0.4-1.5,0.5-3,2-3.4l2.9-0.7c0.7-0.2,1.5-0.1,2.1,0.3&#10;&#9;&#9;c0.6,0.4,1.1,1,1.3,1.7l2.8,11.1c0.4,1.5-0.5,3-2,3.4l-2.9,0.7C347.6,304,347.4,304.1,347.2,304.1z M345.8,301.6&#10;&#9;&#9;c0.2,0.7,0.9,1.2,1.6,1c0,0,0,0,0,0l2.9-0.7c0.7-0.2,1.2-0.9,1-1.6c0,0,0,0,0,0l-2.8-11.1c-0.1-0.4-0.3-0.7-0.6-0.8&#10;&#9;&#9;c-0.3-0.2-0.7-0.2-1-0.1l-2.9,0.7c-0.7,0.2-1.2,0.9-1,1.6c0,0,0,0,0,0L345.8,301.6z"/>
	<path class="st2_sailor-83" d="M171.2,335.6c7.2-3.9,20.1-8.4,35-12.2c9.6-2.5,19.5-4.3,29.4-5.4l2.7,10.7c-9.2,3.7-18.7,6.8-28.4,9.1&#10;&#9;&#9;c-14.9,3.7-28.4,5.8-36.6,5.8L171.2,335.6z"/>
	<path class="st0_sailor-83" d="M173.2,344.3c-0.3,0-0.6-0.2-0.7-0.5l-2-8c-0.1-0.3,0.1-0.7,0.4-0.8c7.6-4,20.7-8.6,35.2-12.2&#10;&#9;&#9;c9.7-2.5,19.5-4.3,29.5-5.4c0.4,0,0.7,0.2,0.8,0.5l2.7,10.7c0.1,0.3-0.1,0.7-0.4,0.8c-9.3,3.7-18.8,6.8-28.5,9.1&#10;&#9;&#9;C195.5,342.1,181.8,344.3,173.2,344.3L173.2,344.3z M172,336l1.7,6.9c8.5-0.1,21.8-2.2,35.8-5.7c9.4-2.3,18.7-5.3,27.8-8.8&#10;&#9;&#9;l-2.3-9.5c-9.7,1.1-19.2,2.9-28.6,5.3C192.3,327.6,179.6,332,172,336z"/>
	<path class="st2_sailor-83" d="M153.4,348.6c-4.6,1.3-39.9,19.7-43.2,6.6s36.6-13.5,41.2-14.6L153.4,348.6z"/>
	<path class="st0_sailor-83" d="M118.2,360.6c-1.8,0.1-3.6-0.3-5.3-1c-3.2-1.6-4.5-5.6-2.9-8.8c0.1-0.3,0.3-0.5,0.5-0.8c5-7,24.7-8.7,35.3-9.6&#10;&#9;&#9;c2.6-0.2,4.7-0.4,5.5-0.6c0.4-0.1,0.8,0.1,0.9,0.5c0,0,0,0,0,0l2,8c0.1,0.4-0.1,0.8-0.5,0.9c-0.8,0.2-2.7,1-5.1,2.1&#10;&#9;&#9;C140.6,354.8,127.1,360.6,118.2,360.6z M150.9,341.4c-1.1,0.1-2.8,0.3-5,0.5c-9.6,0.8-29.6,2.5-34.2,9c-1.6,2.3-1.1,5.5,1.2,7.1&#10;&#9;&#9;c0.2,0.1,0.4,0.3,0.6,0.4c7.1,3.5,25.6-4.4,34.4-8.2c2-0.9,3.6-1.6,4.6-1.9L150.9,341.4z"/>
	<path class="st2_sailor-83" d="M154.2,337.1l3.1,12.3c0.2,0.8-0.3,1.6-1.1,1.8l-4,1c-0.8,0.2-1.6-0.3-1.8-1.1l-3.1-12.3&#10;&#9;&#9;c-0.2-0.8,0.3-1.6,1.1-1.8l4-1C153.2,335.8,154,336.3,154.2,337.1z"/>
	<path class="st0_sailor-83" d="M152.3,352.9c-0.5,0-1-0.1-1.4-0.4c-0.6-0.4-1.1-1-1.3-1.7l-2.8-11.1c-0.4-1.5,0.5-3,2-3.4l2.9-0.7&#10;&#9;&#9;c1.5-0.4,3,0.5,3.4,2l2.8,11.1l0,0c0.4,1.5-0.5,3-2,3.4l-2.9,0.7C152.7,352.8,152.5,352.9,152.3,352.9z M152.4,336.9&#10;&#9;&#9;c-0.1,0-0.2,0-0.3,0l-2.9,0.7c-0.7,0.2-1.2,0.9-1,1.6c0,0,0,0,0,0l2.8,11.2c0.2,0.7,0.9,1.2,1.6,1l2.9-0.7c0.7-0.2,1.2-0.9,1-1.6&#10;&#9;&#9;c0,0,0,0,0,0l-2.8-11.1C153.6,337.3,153,336.8,152.4,336.9L152.4,336.9z"/>
	<path class="st2_sailor-83" d="M320.4,357.7c-5.8-5.8-16.8-13.9-30-21.8c-8.5-5.2-17.4-9.8-26.5-13.7l-5.6,9.4c7.8,6.3,16,11.9,24.6,17&#10;&#9;&#9;c13.2,7.9,25.5,13.8,33.3,16.1L320.4,357.7z"/>
	<path class="st0_sailor-83" d="M316.1,365.5h-0.2c-8.2-2.5-20.7-8.6-33.5-16.2c-8.6-5.1-16.9-10.7-24.7-17c-0.3-0.2-0.3-0.6-0.2-0.9l5.6-9.4&#10;&#9;&#9;c0.2-0.3,0.6-0.4,0.9-0.3c9.2,3.9,18.1,8.5,26.6,13.7c12.8,7.6,24,15.8,30.1,21.9c0.2,0.2,0.3,0.6,0.1,0.9l-4.2,7.1&#10;&#9;&#9;C316.6,365.4,316.4,365.5,316.1,365.5z M259.1,331.5c7.6,6.1,15.6,11.6,24,16.5c12.4,7.4,24.5,13.3,32.6,15.9l3.7-6.1&#10;&#9;&#9;c-6.1-5.9-17-13.9-29.4-21.3c-8.3-5.1-17-9.5-25.9-13.4L259.1,331.5z"/>
	<path class="st2_sailor-83" d="M333.6,375.3c4.1,2.5,32.5,30.5,39.5,18.8s-31.1-23.6-35.2-25.9L333.6,375.3z"/>
	<path class="st0_sailor-83" d="M367.8,397.7c-8.7,0-22.6-11.8-30.3-18.3c-2-1.7-3.6-3-4.3-3.5c-0.3-0.2-0.5-0.6-0.2-1c0,0,0,0,0,0l4.3-7.1&#10;&#9;&#9;c0.2-0.3,0.7-0.5,1-0.3c0,0,0,0,0,0c0.7,0.4,2.6,1.2,5.1,2.1c9.9,3.9,28.2,11.2,31,19.4c1.1,3.4-0.7,7.1-4.2,8.2&#10;&#9;&#9;c-0.3,0.1-0.6,0.2-0.9,0.2C368.8,397.6,368.3,397.7,367.8,397.7z M334.6,375.1c0.9,0.6,2.2,1.8,3.9,3.2&#10;&#9;&#9;c7.4,6.2,22.7,19.1,30.5,17.9c2.8-0.5,4.6-3.1,4.1-5.9c0-0.2-0.1-0.5-0.2-0.7c-2.5-7.6-21.2-15-30.2-18.6c-2.1-0.8-3.7-1.5-4.6-1.9&#10;&#9;&#9;L334.6,375.1z"/>
	<path class="st2_sailor-83" d="M342.2,367.7l-6.5,10.9c-0.4,0.7-1.3,0.9-2,0.5l-3.6-2.1c-0.7-0.4-0.9-1.3-0.5-2l6.5-10.9&#10;&#9;&#9;c0.4-0.7,1.3-0.9,2-0.5l3.6,2.1C342.4,366.1,342.7,367,342.2,367.7z"/>
	<path class="st0_sailor-83" d="M334.2,379.9c-0.5,0-1-0.1-1.4-0.4l-2.5-1.5c-1.3-0.8-1.8-2.5-1-3.8c0,0,0,0,0,0l5.9-9.8&#10;&#9;&#9;c0.4-0.6,1-1.1,1.7-1.3c0.7-0.2,1.5-0.1,2.1,0.3l2.5,1.5c1.3,0.8,1.8,2.5,1,3.8c0,0,0,0,0,0l-5.9,9.9c-0.4,0.6-1,1.1-1.7,1.3&#10;&#9;&#9;C334.7,379.8,334.5,379.9,334.2,379.9z M337.6,364.3c-0.1,0-0.2,0-0.3,0c-0.3,0.1-0.6,0.3-0.8,0.6l-5.9,9.9l0,0&#10;&#9;&#9;c-0.2,0.3-0.2,0.7-0.1,1c0.1,0.3,0.3,0.6,0.6,0.8l2.6,1.5c0.6,0.4,1.5,0.2,1.8-0.4c0,0,0,0,0,0l5.9-9.9c0.4-0.6,0.2-1.5-0.5-1.9&#10;&#9;&#9;l-2.6-1.5C338.1,364.3,337.8,364.3,337.6,364.3z M329.9,374.5L329.9,374.5z"/>
	<path class="st2_sailor-83" d="M183,275.4c7.9,2.4,20.1,8.2,33.3,16.1c8.6,5.1,16.8,10.7,24.6,17l-5.6,9.4c-9.2-3.9-18-8.5-26.6-13.7&#10;&#9;&#9;c-13.2-7.9-24.1-16-30-21.8L183,275.4z"/>
	<path class="st0_sailor-83" d="M235.2,318.6c-0.1,0-0.2,0-0.3-0.1c-9.2-3.9-18.1-8.5-26.6-13.7c-12.8-7.6-24-15.8-30.1-21.9&#10;&#9;&#9;c-0.2-0.2-0.3-0.6-0.1-0.9l4.2-7.1c0.2-0.3,0.5-0.4,0.8-0.3c8.2,2.5,20.7,8.6,33.5,16.2c8.6,5.1,16.9,10.7,24.7,17&#10;&#9;&#9;c0.3,0.2,0.3,0.6,0.2,0.9l-5.6,9.4C235.7,318.5,235.5,318.6,235.2,318.6z M179.6,282.3c6.1,5.9,17,13.9,29.4,21.3&#10;&#9;&#9;c8.3,5.1,16.9,9.5,25.9,13.4l5-8.4c-7.6-6.1-15.6-11.6-24-16.5c-12.4-7.4-24.5-13.3-32.6-15.9L179.6,282.3z"/>
	<path class="st2_sailor-83" d="M161.3,272c-4.2-2.4-42.2-14.3-35.2-25.9s35.4,16.3,39.5,18.8L161.3,272z"/>
	<path class="st0_sailor-83" d="M161.3,272.7c-0.1,0-0.2,0-0.4-0.1c-0.7-0.4-2.6-1.2-5.1-2.1c-9.9-3.9-28.2-11.2-31-19.4&#10;&#9;&#9;c-1.1-3.4,0.7-7.1,4.2-8.2c0.3-0.1,0.6-0.2,0.9-0.2c8.4-1.4,23.6,11.3,31.7,18.2c2,1.7,3.6,3,4.3,3.5c0.3,0.2,0.4,0.7,0.2,1&#10;&#9;&#9;c0,0,0,0,0,0l-4.3,7.1C161.7,272.6,161.5,272.7,161.3,272.7z M131.3,243.9c-0.4,0-0.8,0-1.2,0.1c-2.8,0.5-4.6,3.1-4.1,5.9&#10;&#9;&#9;c0,0.2,0.1,0.5,0.2,0.7c2.6,7.5,21.2,15,30.1,18.5c2.1,0.8,3.7,1.5,4.6,1.9l3.6-6c-0.9-0.6-2.2-1.8-3.9-3.2&#10;&#9;&#9;C153.7,256,139.4,244,131.3,243.9L131.3,243.9z"/>
	<path class="st2_sailor-83" d="M169.9,264.5l-6.5,10.9c-0.4,0.7-1.3,0.9-2,0.5l-3.6-2.1c-0.7-0.4-0.9-1.3-0.5-2l6.5-10.9&#10;&#9;&#9;c0.4-0.7,1.3-0.9,2-0.5l3.6,2.1C170.1,262.9,170.4,263.8,169.9,264.5z"/>
	<path class="st0_sailor-83" d="M161.9,276.6c-0.5,0-1-0.1-1.4-0.4l-2.6-1.5c-1.3-0.8-1.8-2.5-1-3.8c0,0,0,0,0,0l5.9-9.8&#10;&#9;&#9;c0.8-1.3,2.5-1.8,3.8-1c0,0,0,0,0,0l2.6,1.5c1.3,0.8,1.8,2.5,1,3.8c0,0,0,0,0,0l-5.9,9.9l0,0C163.8,276.1,162.9,276.6,161.9,276.6z&#10;&#9;&#9; M165.3,261c-0.5,0-0.9,0.2-1.2,0.7l-5.9,9.9c-0.4,0.6-0.2,1.5,0.5,1.9l2.6,1.5c0.6,0.4,1.5,0.2,1.9-0.5c0,0,0,0,0,0l5.9-9.9&#10;&#9;&#9;c0.4-0.6,0.2-1.5-0.5-1.9l-2.5-1.5C165.8,261.1,165.5,261,165.3,261z M163.7,274.9L163.7,274.9z"/>
	<path class="st2_sailor-83" d="M225.9,224.2c-52.7,13.2-84.8,66.7-71.6,119.4s66.7,84.8,119.4,71.6s84.8-66.7,71.6-119.4c0,0,0,0,0,0&#10;&#9;&#9;C332,243.1,278.6,211,225.9,224.2z M268.2,393.4c-40.7,10.2-81.9-14.5-92.1-55.2s14.5-81.9,55.2-92.1s81.9,14.5,92.1,55.2&#10;&#9;&#9;c0,0,0,0,0,0C333.6,342,308.9,383.2,268.2,393.4z"/>
	<path class="st0_sailor-83" d="M249.8,418.9c-54.8,0.1-99.4-44.3-99.4-99.2s44.3-99.4,99.2-99.4s99.4,44.3,99.4,99.2&#10;&#9;&#9;c0.1,45.6-30.9,85.3-75.1,96.4C266,417.9,257.9,418.9,249.8,418.9z M249.8,222c-54,0-97.7,43.7-97.7,97.7s43.7,97.7,97.7,97.7&#10;&#9;&#9;c54,0,97.7-43.7,97.7-97.7c0-8-1-16-2.9-23.7C333.6,252.6,294.6,222.1,249.8,222L249.8,222z M249.8,396.4&#10;&#9;&#9;c-42.4,0-76.8-34.3-76.8-76.7c0-42.4,34.3-76.8,76.7-76.8c42.4,0,76.8,34.3,76.8,76.7c0,35.2-23.9,65.9-58,74.5l-0.2-0.7l0.2,0.7&#10;&#9;&#9;C262.3,395.6,256.1,396.4,249.8,396.4z M249.8,244.5c-41.5,0-75.2,33.6-75.2,75.2c0,41.5,33.6,75.2,75.2,75.2&#10;&#9;&#9;c6.2,0,12.3-0.8,18.3-2.2l0,0c40.3-10.1,64.8-50.9,54.7-91.2C314.3,268,284.2,244.5,249.8,244.5L249.8,244.5z"/>
	<path class="st2_sailor-83" d="M287.5,427.3l-17.3-115.7c-1.2-8.1-7.6-14-15.1-14h-10.7c-7.5,0-13.9,5.9-15.1,14l-17.3,115.7H287.5z"/>
	<path class="st0_sailor-83" d="M287.5,428h-75.4c-0.2,0-0.4-0.1-0.6-0.2c-0.1-0.2-0.2-0.4-0.2-0.6l17.3-115.7c1.3-8.5,7.9-14.6,15.8-14.6&#10;&#9;&#9;h10.7c7.9,0,14.5,6.1,15.8,14.6l17.3,115.7c0,0.2,0,0.4-0.2,0.6C287.9,427.9,287.7,428,287.5,428z M212.9,426.6h73.8l-17.1-114.9&#10;&#9;&#9;c-1.1-7.8-7.2-13.4-14.4-13.4h-10.7c-7.2,0-13.2,5.6-14.4,13.4L212.9,426.6z"/>
	<circle class="st3_sailor-83" cx="249.8" cy="319.8" r="12.1"/>
</g>
<g id="Hands_sailor-83">
	<path class="st2_sailor-83" d="M136.1,287.4c2.9,2.1,6.4,3.1,9.9,2.9c3.6-0.3,6.7-2.5,8.2-5.8c0.4-0.9,0.5-1.9,0.5-2.8&#10;&#9;&#9;c-0.1-1.5-0.7-2.9-1.6-4c-3.8-5-16.6-12.1-22.6-8.1C122.5,274.7,130.8,283.8,136.1,287.4z"/>
	<path class="st0_sailor-83" d="M144.7,291c-3.3-0.1-6.4-1.1-9.1-3l0,0c-3.4-2.4-9.2-7.8-9.2-13.1c0-2.4,1.2-4.5,3.6-6.1&#10;&#9;&#9;c6.3-4.2,19.5,2.9,23.6,8.3c1,1.3,1.6,2.8,1.8,4.4c0,1.1-0.1,2.1-0.6,3.1c-1.5,3.5-4.9,6-8.8,6.3C145.6,291,145.2,291,144.7,291z&#10;&#9;&#9; M136.5,286.8c2.7,2,6.1,3,9.4,2.7c3.3-0.3,6.2-2.3,7.6-5.4c0.3-0.8,0.5-1.7,0.4-2.5c-0.1-1.3-0.6-2.6-1.5-3.7&#10;&#9;&#9;c-3.6-4.8-16.1-11.6-21.6-8c-1.8,1-2.9,2.8-3,4.9C127.9,279,132.3,283.9,136.5,286.8L136.5,286.8z"/>
	<path class="st2_sailor-83" d="M145.8,238.6c2.2,0.2,4.3,0.8,6.3,1.7c2,1.1,4.9,2.7,5.9,4.8c0.6,1.2,0.6,2.5,0,3.7c-0.7,1.1-1.9,1.8-3.2,1.9&#10;&#9;&#9;c-1.3,0.1-2.6,0-3.8-0.4c-3-0.7-19.9-4.3-14-10.5C139.1,237.7,143,238.3,145.8,238.6z"/>
	<path class="st0_sailor-83" d="M154,251.5c-1.1,0-2.2-0.2-3.2-0.5l-0.4-0.1c-9.4-2.2-14.4-4.6-15.3-7.6c-0.4-1.5,0.2-3,1.3-4&#10;&#9;&#9;c2.3-2.4,6.1-1.9,8.9-1.5l0.4,0.1c2.3,0.2,4.5,0.8,6.5,1.8c2.3,1.2,5.2,2.9,6.2,5.1c0.7,1.4,0.7,3,0,4.4c-0.8,1.3-2.2,2.1-3.7,2.2&#10;&#9;&#9;C154.6,251.5,154.3,251.5,154,251.5z M141.8,239c-1.6-0.1-3.1,0.4-4.3,1.4c-0.8,0.6-1.2,1.6-1,2.6c0.5,1.6,3.3,4.1,14.2,6.6&#10;&#9;&#9;l0.4,0.1c1.2,0.3,2.4,0.5,3.6,0.4c1.1-0.1,2-0.6,2.6-1.5c0.5-0.9,0.5-2.1,0-3c-0.9-1.9-3.6-3.5-5.6-4.5c-1.9-0.9-3.9-1.5-6-1.6l0,0&#10;&#9;&#9;l-0.4-0.1C144.1,239.1,142.9,239,141.8,239z"/>
	<path class="st2_sailor-83" d="M166.8,258.2c-0.3-0.4-1.6-2.1-3.2-2.1c-1.2,0.1-3.7,3.5-3.7,3.5c1.3-1.9,1.7-4.5,0.4-6.3s-4.7-1.9-5.6,0.1&#10;&#9;&#9;c1.2-1.6,0.8-3.8-0.8-5c-0.1-0.1-0.2-0.1-0.2-0.2c-1.7-1-3.9-1-4.9,1c1.6-1.4,1.7-3,0.5-4.5c-1-1.1-2.7-1.1-4.1-0.9&#10;&#9;&#9;c-5.7,0.9-11,3.6-15.1,7.7c-3.3,3.3-9,10.1-7.3,15c0.8,1.9,1.9,3.6,3.2,5.1c2.2,3.1,4.8,6,7.8,8.4c5.2,3.9,11.9,5.3,18.3,3.8&#10;&#9;&#9;c4.6-1.1,5.4-3,7-7.2C160.8,272.2,168.7,260.5,166.8,258.2z"/>
	<path class="st0_sailor-83" d="M147,285.2c-4.9,0-9.7-1.6-13.7-4.5c-3-2.5-5.7-5.4-7.9-8.5c-1.4-1.6-2.5-3.4-3.3-5.4&#10;&#9;&#9;c-2-5.8,5.2-13.5,7.5-15.7c4.2-4.2,9.6-6.9,15.5-7.9c2.2-0.3,3.8,0,4.8,1.1c0.7,0.7,1.1,1.7,1,2.7c1.1-0.1,2.2,0.1,3.2,0.7&#10;&#9;&#9;c1.1,0.6,1.8,1.6,2,2.9c0.1,0.3,0.1,0.6,0.1,0.9c0.3-0.1,0.6-0.1,0.9-0.2c1.5-0.2,3,0.5,4,1.7c0.7,1,1.1,2.2,1,3.4&#10;&#9;&#9;c0.5-0.5,1.1-0.8,1.7-0.9h0.1c1.7,0,3.1,1.6,3.6,2.2l0.1,0.1c1.5,1.8-0.8,6.4-4.5,13.1c-1.1,2-2.2,4-3.1,6.1&#10;&#9;&#9;c-1.6,4.1-2.5,6.4-7.5,7.7C150.6,285,148.8,285.3,147,285.2z M146.6,244.5c-0.4,0-0.9,0-1.3,0.1c-5.6,0.9-10.7,3.5-14.7,7.5&#10;&#9;&#9;c-4.3,4.3-8.5,10.3-7.1,14.2c0.7,1.8,1.7,3.5,3,4.9c2.2,3.1,4.8,5.9,7.7,8.3c5.1,3.8,11.5,5.1,17.7,3.7c4.3-1,4.9-2.6,6.5-6.8&#10;&#9;&#9;c0.9-2.1,2-4.2,3.2-6.2c2.1-3.9,5.7-10.3,4.7-11.5l-0.1-0.1c-0.4-0.4-1.4-1.7-2.5-1.7c-0.5,0-1.9,1.6-3.1,3.2l0,0&#10;&#9;&#9;c-0.2,0.3-0.7,0.4-1,0.2c-0.3-0.2-0.4-0.7-0.2-1l0,0c1.1-1.5,1.6-3.9,0.4-5.5c-0.6-0.8-1.6-1.2-2.7-1.1c-0.6,0-1.1,0.3-1.5,0.7&#10;&#9;&#9;c-0.1,0.2-0.2,0.4-0.4,0.6c-0.2,0.3-0.7,0.4-1,0.1c-0.3-0.2-0.4-0.6-0.3-0.9c0.1-0.2,0.2-0.4,0.4-0.6c0.2-0.5,0.3-1.1,0.2-1.7&#10;&#9;&#9;c-0.1-0.8-0.6-1.4-1.3-1.9c-0.8-0.5-1.7-0.6-2.6-0.4c-0.2,0-0.3,0.1-0.5,0.2c-0.3,0.4-0.6,0.8-0.9,1.1c-0.3,0.2-0.7,0.2-0.9,0&#10;&#9;&#9;c-0.3-0.2-0.4-0.6-0.2-0.9c0.2-0.5,0.6-0.9,1-1.2c0.4-0.8,0.3-1.8-0.4-2.4C148.1,244.7,147.3,244.5,146.6,244.5z"/>
	<path class="st0_sailor-83" d="M130.6,267.9c-0.1,0-0.2,0-0.4-0.1c-0.4-0.2-0.5-0.6-0.3-1c0,0,0,0,0,0c4.2-7.7,17.9-17.7,18.5-18.1&#10;&#9;&#9;c0.3-0.2,0.8-0.2,1,0.2c0.2,0.3,0.2,0.8-0.2,1c-0.1,0.1-14,10.2-18.1,17.6C131.1,267.7,130.8,267.9,130.6,267.9z"/>
	<path class="st0_sailor-83" d="M139,273.6c-0.1,0-0.3,0-0.4-0.1c-0.3-0.2-0.5-0.6-0.3-1c0,0,0,0,0,0c4.9-8.3,15.4-19.1,15.8-19.6&#10;&#9;&#9;c0.3-0.3,0.7-0.3,1,0c0.3,0.3,0.3,0.7,0,1c-0.1,0.1-10.8,11.2-15.6,19.3C139.5,273.5,139.2,273.6,139,273.6z"/>
	<path class="st0_sailor-83" d="M146.8,278c-0.1,0-0.2,0-0.3-0.1c-0.4-0.2-0.5-0.6-0.4-1c0,0,0,0,0,0c4.3-8.9,12.9-17.4,13.3-17.8&#10;&#9;&#9;c0.3-0.2,0.8-0.1,1,0.2c0.2,0.2,0.2,0.6,0,0.8c-0.1,0.1-8.8,8.7-13,17.4C147.3,277.8,147.1,278,146.8,278z"/>
	<path class="st2_sailor-83" d="M374.5,270c-2.1-0.7-4.3-0.9-6.5-0.8c-2.3,0.2-5.6,0.6-7.3,2.2c-1,0.8-1.5,2.1-1.4,3.4c0.2,1.3,1.1,2.4,2.2,3&#10;&#9;&#9;c1.2,0.6,2.4,0.9,3.7,1.1c3.1,0.5,20.1,3.6,16.9-4.3C381,271.6,377.2,270.7,374.5,270z"/>
	<path class="st0_sailor-83" d="M375.1,280.5c-3.2-0.1-6.4-0.4-9.6-1l-0.4-0.1c-1.4-0.2-2.7-0.5-3.9-1.2c-1.4-0.7-2.3-2-2.6-3.5&#10;&#9;&#9;c-0.1-1.5,0.5-3,1.7-4c1.9-1.7,5.1-2.1,7.8-2.4c2.3-0.1,4.5,0.1,6.7,0.8l0.4,0.1c2.7,0.8,6.4,1.8,7.6,4.8c0.7,1.3,0.6,3-0.3,4.2&#10;&#9;&#9;C381.4,279.8,378.9,280.5,375.1,280.5z M369.2,269.8c-0.4,0-0.7,0-1,0c-2.2,0.2-5.4,0.6-6.9,2c-0.8,0.7-1.3,1.7-1.2,2.8&#10;&#9;&#9;c0.2,1.1,0.9,2,1.9,2.4c1.1,0.5,2.2,0.9,3.4,1l0.4,0.1c11,1.9,14.6,0.7,15.7-0.6c0.5-0.8,0.6-1.9,0.1-2.8c-0.9-2.4-4.3-3.3-6.7-4&#10;&#9;&#9;l-0.4-0.1C372.7,270.1,371,269.8,369.2,269.8L369.2,269.8z"/>
	<path class="st2_sailor-83" d="M350.9,277.4c0.5-0.2,2.3-1.4,3.7-0.7c1.1,0.5,2,4.7,2,4.7c-0.5-2.2,0.1-4.8,2.1-6s5,0,5.2,2.3&#10;&#9;&#9;c-0.5-1.9,0.7-3.8,2.6-4.3c0.1,0,0.2,0,0.3-0.1c2-0.2,4,0.6,4.1,2.8c-0.9-2-0.4-3.5,1.3-4.3c1.3-0.6,2.9,0,4.1,0.8&#10;&#9;&#9;c4.9,3,8.8,7.5,11,12.8c1.8,4.3,4.5,12.8,1,16.6c-1.4,1.4-3.1,2.6-4.9,3.5c-3.3,2-6.8,3.7-10.5,4.8c-6.3,1.6-13,0.3-18.3-3.5&#10;&#9;&#9;c-3.8-2.8-3.8-4.8-3.7-9.4C351.1,292.5,348.3,278.7,350.9,277.4z"/>
	<path class="st0_sailor-83" d="M367.6,311.6c-4.8,0-9.5-1.5-13.4-4.3c-4.2-3-4.1-5.5-4-10c-0.1-2.3-0.2-4.5-0.5-6.8&#10;&#9;&#9;c-0.8-7.7-1.2-12.8,0.8-13.9l0,0l0.1-0.1c0.7-0.4,2.6-1.4,4.2-0.6c0.6,0.4,1,0.9,1.2,1.5c0.4-1.2,1.2-2.2,2.2-2.8&#10;&#9;&#9;c1.3-0.7,3-0.7,4.3,0c0.3,0.1,0.5,0.3,0.7,0.5c0.1-0.3,0.2-0.5,0.4-0.8c0.6-1,1.7-1.7,2.9-1.9c1.1-0.1,2.2,0.1,3.2,0.6&#10;&#9;&#9;c0.3-0.9,1.1-1.7,2-2.1c1.3-0.6,2.9-0.4,4.8,0.8c5.1,3.1,9,7.7,11.3,13.2c1.2,2.9,4.9,12.8,0.9,17.4c-1.5,1.5-3.2,2.7-5.1,3.7&#10;&#9;&#9;c-3.3,2.1-6.9,3.7-10.6,4.9C371.4,311.4,369.5,311.7,367.6,311.6z M351.2,278c-1.4,0.7-0.5,8-0.1,12.4c0.3,2.3,0.5,4.7,0.5,7&#10;&#9;&#9;c-0.1,4.5-0.2,6.1,3.4,8.7c5.1,3.7,11.6,4.9,17.7,3.4c3.6-1.1,7.1-2.7,10.3-4.7c1.7-0.9,3.3-2,4.7-3.4c2.8-3.1,1.2-10.2-1.1-15.9&#10;&#9;&#9;c-2.1-5.2-5.9-9.6-10.7-12.6c-1.5-0.9-2.6-1.1-3.4-0.7c-0.9,0.3-1.4,1.2-1.3,2.1c0.3,0.5,0.4,1,0.5,1.5c0,0.3-0.2,0.7-0.5,0.8&#10;&#9;&#9;c-0.3,0.1-0.7-0.1-0.8-0.4c-0.2-0.4-0.4-0.9-0.5-1.4c-0.1-0.1-0.2-0.3-0.3-0.4c-0.8-0.5-1.7-0.7-2.6-0.6c-0.8,0.1-1.5,0.6-1.9,1.2&#10;&#9;&#9;c-0.3,0.5-0.5,1.1-0.5,1.7c0.1,0.2,0.1,0.5,0.1,0.7c0,0.4-0.2,0.7-0.6,0.8c-0.4,0.1-0.7-0.1-0.8-0.5c-0.1-0.2-0.1-0.4-0.1-0.7&#10;&#9;&#9;c-0.2-0.5-0.6-0.9-1.1-1.1c-0.9-0.5-2-0.5-2.9,0c-1.7,1-2.1,3.4-1.7,5.2l0,0c0.1,0.4-0.1,0.8-0.5,0.9c-0.4,0.1-0.8-0.1-0.9-0.5&#10;&#9;&#9;c0,0,0-0.1,0-0.1l0,0c-0.4-2-1.2-3.9-1.6-4.1c-1-0.5-2.5,0.3-3,0.6L351.2,278z"/>
	<path class="st0_sailor-83" d="M381,300.2c-0.4,0-0.7-0.3-0.7-0.6c-0.9-8.4-9.8-23.1-9.9-23.2c-0.2-0.3-0.1-0.8,0.2-1c0.3-0.2,0.8-0.1,1,0.2&#10;&#9;&#9;c0.4,0.6,9.2,15.1,10.1,23.8C381.8,299.8,381.5,300.2,381,300.2L381,300.2z"/>
	<path class="st0_sailor-83" d="M371,302.3c-0.4,0-0.7-0.3-0.7-0.6c-1.3-9.3-7-23.7-7-23.8c-0.1-0.4,0-0.8,0.4-0.9s0.8,0,0.9,0.4l0,0&#10;&#9;&#9;c0.2,0.6,5.8,14.6,7.1,24.1c0.1,0.4-0.2,0.7-0.6,0.8c0,0,0,0,0,0L371,302.3z"/>
	<path class="st0_sailor-83" d="M362.1,303.3c-0.4,0-0.7-0.3-0.7-0.7c-0.5-9.6-5.3-20.9-5.3-21c-0.2-0.4,0-0.8,0.3-1s0.8,0,1,0.3&#10;&#9;&#9;c0,0,0,0,0,0.1c0.2,0.5,4.9,11.6,5.5,21.5C362.8,302.9,362.5,303.3,362.1,303.3L362.1,303.3z"/>
</g>
</svg>